<svg width="43" height="43" viewBox="0 0 43 43" fill="none" xmlns="http://www.w3.org/2000/svg">
<path d="M17.1875 19.6564C16.2165 19.6564 15.4514 20.5074 15.4514 21.5466C15.4514 22.5822 16.2344 23.4368 17.1875 23.4368C18.1568 23.4368 18.9219 22.5822 18.9219 21.5466C18.9416 20.5056 18.1568 19.6564 17.1875 19.6564ZM23.401 19.6564C22.43 19.6564 21.6649 20.5074 21.6649 21.5466C21.6649 22.5822 22.4479 23.4368 23.401 23.4368C24.3703 23.4368 25.1354 22.5822 25.1354 21.5466C25.1336 20.5056 24.3703 19.6564 23.401 19.6564Z" fill="black"/>
<path d="M31.6731 5.375H8.86339C8.40411 5.37617 7.94956 5.4678 7.5257 5.64464C7.10183 5.82149 6.71694 6.08009 6.39302 6.40568C6.06909 6.73127 5.81247 7.11747 5.6378 7.54224C5.46313 7.967 5.37383 8.42201 5.37501 8.88129V31.8935C5.37501 33.8338 6.94093 35.3997 8.86339 35.3997H28.165L27.2602 32.2482L29.4407 34.2746L31.4993 36.1809L35.1615 39.4167V8.88129C35.1626 8.42201 35.0733 7.967 34.8987 7.54224C34.724 7.11747 34.4674 6.73127 34.1435 6.40568C33.8195 6.08009 33.4346 5.82149 33.0108 5.64464C32.5869 5.4678 32.1324 5.37617 31.6731 5.375ZM25.1013 27.6042C25.1013 27.6042 24.4885 26.8732 23.9797 26.2228C26.2085 25.5922 27.0595 24.1982 27.0595 24.1982C26.3608 24.6569 25.6979 24.983 25.1013 25.2052C22.9292 26.1142 20.5372 26.3623 18.2248 25.9183C17.3704 25.7504 16.5332 25.5045 15.7237 25.1837C15.2968 25.0215 14.8818 24.8293 14.4821 24.6085C14.4301 24.5709 14.3799 24.5566 14.3298 24.5225C14.3029 24.5098 14.2791 24.4915 14.2599 24.4688C13.9535 24.3004 13.7833 24.1821 13.7833 24.1821C13.7833 24.1821 14.6003 25.5438 16.7628 26.1906C16.2522 26.8356 15.6216 27.6042 15.6216 27.6042C11.8608 27.4842 10.4329 25.017 10.4329 25.017C10.4329 19.5363 12.8839 15.0948 12.8839 15.0948C15.3349 13.2548 17.6658 13.3067 17.6658 13.3067L17.8361 13.511C14.7723 14.3978 13.3587 15.7416 13.3587 15.7416C13.3587 15.7416 13.7349 15.5373 14.3638 15.2489C16.1841 14.4498 17.63 14.2276 18.2266 14.1757C18.3288 14.1595 18.4148 14.1416 18.5169 14.1416C21.4681 13.7439 24.4691 14.3048 27.0775 15.7416C27.0775 15.7416 25.7319 14.4659 22.8384 13.5808L23.0767 13.3085C23.0767 13.3085 25.4094 13.2565 27.8586 15.0966C27.8586 15.0966 30.3096 19.5381 30.3096 25.0188C30.3096 25.017 28.8638 27.4842 25.1013 27.6042Z" fill="black"/>
</svg>
