<svg width="38" height="38" viewBox="0 0 38 38" fill="none" xmlns="http://www.w3.org/2000/svg">
<mask id="mask0_5_46" style="mask-type:alpha" maskUnits="userSpaceOnUse" x="6" y="3" width="26" height="32">
<path fill-rule="evenodd" clip-rule="evenodd" d="M23.5769 4.53719C22.7096 3.66974 21.5401 3.17052 20.3134 3.16764C19.8984 3.16667 19.4612 3.16667 19 3.16667C14.5662 3.16667 12.3494 3.16667 10.6559 4.02954C9.16628 4.78853 7.95517 5.99964 7.19618 7.48925C6.33331 9.18272 6.33331 11.3996 6.33331 15.8333V22.1667C6.33331 26.6005 6.33331 28.8173 7.19618 30.5108C7.95517 32.0004 9.16628 33.2115 10.6559 33.9704C12.3494 34.8333 14.5662 34.8333 19 34.8333C23.4338 34.8333 25.6506 34.8333 27.344 33.9704C28.8337 33.2115 30.0448 32.0004 30.8037 30.5108C31.6666 28.8173 31.6666 26.6005 31.6666 22.1667V15.8333C31.6666 15.3722 31.6666 14.935 31.6657 14.5199C31.6628 13.2932 31.1636 12.1238 30.2961 11.2564L23.5769 4.53719Z" fill="white"/>
</mask>
<g mask="url(#mask0_5_46)">
<path d="M10.6559 4.02954L11.7341 6.14568L10.6559 4.02954ZM7.19618 7.48925L9.31232 8.56747L7.19618 7.48925ZM7.19618 30.5108L5.08004 31.5889L7.19618 30.5108ZM10.6559 33.9704L11.7341 31.8543L10.6559 33.9704ZM27.344 33.9704L26.2659 31.8543L27.344 33.9704ZM30.8037 30.5108L28.6876 29.4326L30.8037 30.5108ZM30.2961 11.2564L28.6168 12.9357L30.2961 11.2564ZM19 5.54167C19.4617 5.54167 19.896 5.54167 20.3078 5.54264L20.3189 0.79265C19.9006 0.791672 19.4606 0.791673 19 0.791673V5.54167ZM11.7341 6.14568C12.1902 5.91327 12.8205 5.7375 13.9937 5.64164C15.1947 5.54353 16.7439 5.54167 19 5.54167V0.791673C16.8223 0.791673 15.0462 0.789826 13.6069 0.90742C12.1399 1.02728 10.815 1.28294 9.57766 1.9134L11.7341 6.14568ZM9.31232 8.56747C9.84361 7.52475 10.6914 6.67697 11.7341 6.14568L9.57766 1.9134C7.64116 2.90009 6.06673 4.47452 5.08004 6.41102L9.31232 8.56747ZM8.70831 15.8333C8.70831 13.5773 8.71017 12.0281 8.80829 10.8271C8.90414 9.65384 9.07991 9.0236 9.31232 8.56747L5.08004 6.41102C4.44958 7.64836 4.19391 8.97329 4.07406 10.4403C3.95646 11.8796 3.95831 13.6557 3.95831 15.8333H8.70831ZM8.70831 22.1667V15.8333H3.95831V22.1667H8.70831ZM9.31232 29.4326C9.07991 28.9764 8.90414 28.3461 8.80829 27.1729C8.71017 25.9719 8.70831 24.4228 8.70831 22.1667H3.95831C3.95831 24.3444 3.95646 26.1204 4.07406 27.5597C4.19391 29.0268 4.44958 30.3517 5.08004 31.5889L9.31232 29.4326ZM11.7341 31.8543C10.6914 31.3231 9.84361 30.4752 9.31232 29.4326L5.08004 31.5889C6.06673 33.5255 7.64116 35.1 9.57766 36.0865L11.7341 31.8543ZM19 32.4583C16.7439 32.4583 15.1947 32.4564 13.9937 32.3584C12.8205 32.2625 12.1902 32.0867 11.7341 31.8543L9.57766 36.0865C10.815 36.717 12.1399 36.9727 13.6069 37.0926C15.0462 37.2102 16.8223 37.2083 19 37.2083V32.4583ZM26.2659 31.8543C25.8097 32.0867 25.1794 32.2625 24.0062 32.3584C22.8052 32.4564 21.2561 32.4583 19 32.4583V37.2083C21.1777 37.2083 22.9537 37.2102 24.393 37.0926C25.8601 36.9727 27.185 36.717 28.4222 36.0865L26.2659 31.8543ZM28.6876 29.4326C28.1564 30.4752 27.3085 31.3231 26.2659 31.8543L28.4222 36.0865C30.3588 35.1 31.9333 33.5255 32.9199 31.5889L28.6876 29.4326ZM29.2916 22.1667C29.2916 24.4228 29.2897 25.9719 29.1917 27.1729C29.0958 28.3461 28.92 28.9764 28.6876 29.4326L32.9199 31.5889C33.5503 30.3517 33.806 29.0268 33.9259 27.5597C34.0435 26.1204 34.0416 24.3444 34.0416 22.1667H29.2916ZM29.2916 15.8333V22.1667H34.0416V15.8333H29.2916ZM29.2907 14.5255C29.2916 14.9373 29.2916 15.3716 29.2916 15.8333H34.0416C34.0416 15.3728 34.0416 14.9328 34.0407 14.5144L29.2907 14.5255ZM31.9756 9.57696L25.2564 2.8578L21.8976 6.21657L28.6168 12.9357L31.9756 9.57696ZM34.0407 14.5144C34.0363 12.6424 33.2745 10.876 31.9756 9.57696L28.6168 12.9357C29.0526 13.3715 29.2893 13.944 29.2907 14.5255L34.0407 14.5144ZM20.3078 5.54264C20.8894 5.544 21.4617 5.78077 21.8976 6.21657L25.2564 2.8578C23.9572 1.55873 22.191 0.79703 20.3189 0.79265L20.3078 5.54264Z" fill="#1B1B1B"/>
<path d="M21.375 3.95833V8.70833C21.375 11.3317 23.5016 13.4583 26.125 13.4583H30.0833" stroke="#1B1B1B" stroke-width="1.5"/>
</g>
</svg>
