<svg width="30" height="28" viewBox="0 0 30 28" fill="none" xmlns="http://www.w3.org/2000/svg">
<path d="M13.6016 1.79947C14.1969 0.678617 15.803 0.678617 16.3984 1.79947L19.4954 7.63065C19.7242 8.06156 20.139 8.36287 20.6195 8.44737L27.1223 9.59092C28.3723 9.81071 28.8685 11.3382 27.9865 12.2507L23.3978 16.9982C23.0587 17.3489 22.9003 17.8365 22.9684 18.3196L23.8904 24.8575C24.0676 26.1142 22.7681 27.0582 21.6278 26.5013L15.6947 23.6043C15.2563 23.3901 14.7436 23.3901 14.3052 23.6043L8.37219 26.5013C7.23175 27.0582 5.93241 26.1142 6.10962 24.8575L7.03153 18.3196C7.09966 17.8365 6.94125 17.3489 6.60216 16.9982L2.01343 12.2507C1.13138 11.3382 1.62769 9.81071 2.87766 9.59092L9.38047 8.44737C9.861 8.36287 10.2757 8.06154 10.5046 7.63065L13.6016 1.79947Z" stroke="#FF5959" stroke-width="1.5"/>
</svg>
