<svg width="28" height="33" viewBox="0 0 28 33" fill="none" xmlns="http://www.w3.org/2000/svg">
<path d="M10.0063 3.4116L3.67292 8.55743C2.52303 9.49172 1.94807 9.95887 1.6407 10.6046C1.33334 11.2504 1.33334 11.9912 1.33334 13.4728V19.1667C1.33334 25.1377 1.33334 28.1234 3.18833 29.9783C5.04333 31.8333 8.02888 31.8333 14 31.8333C19.9711 31.8333 22.9568 31.8333 24.8116 29.9783C26.6667 28.1234 26.6667 25.1377 26.6667 19.1667V13.4728C26.6667 11.9912 26.6667 11.2504 26.3593 10.6046C26.0519 9.95887 25.477 9.49172 24.3271 8.55743L17.9938 3.4116C16.0808 1.8573 15.1243 1.08015 14 1.08015C12.8757 1.08015 11.9192 1.8573 10.0063 3.4116Z" stroke="#1B1B1B" stroke-width="1.5"/>
</svg>
