<svg width="397" height="80" viewBox="0 0 397 80" fill="none" xmlns="http://www.w3.org/2000/svg">
<g filter="url(#filter0_d_26_112)">
<path d="M24.6 22.4V37.2H50.52V47.6H24.6V68H11.64V12H53.96V22.4H24.6ZM81.24 68.64C76.7067 68.64 72.6267 67.7067 69 65.84C65.4267 63.92 62.6267 61.28 60.6 57.92C58.5733 54.56 57.56 50.7467 57.56 46.48C57.56 42.2133 58.5733 38.4 60.6 35.04C62.6267 31.68 65.4267 29.0667 69 27.2C72.6267 25.28 76.7067 24.32 81.24 24.32C85.7733 24.32 89.8267 25.28 93.4 27.2C96.9733 29.0667 99.7733 31.68 101.8 35.04C103.827 38.4 104.84 42.2133 104.84 46.48C104.84 50.7467 103.827 54.56 101.8 57.92C99.7733 61.28 96.9733 63.92 93.4 65.84C89.8267 67.7067 85.7733 68.64 81.24 68.64ZM81.24 58.4C84.44 58.4 87.0533 57.3333 89.08 55.2C91.16 53.0133 92.2 50.1067 92.2 46.48C92.2 42.8533 91.16 39.9733 89.08 37.84C87.0533 35.6533 84.44 34.56 81.24 34.56C78.04 34.56 75.4 35.6533 73.32 37.84C71.24 39.9733 70.2 42.8533 70.2 46.48C70.2 50.1067 71.24 53.0133 73.32 55.2C75.4 57.3333 78.04 58.4 81.24 58.4ZM133.982 68.64C129.395 68.64 125.262 67.7067 121.582 65.84C117.955 63.92 115.102 61.28 113.022 57.92C110.995 54.56 109.982 50.7467 109.982 46.48C109.982 42.2133 110.995 38.4 113.022 35.04C115.102 31.68 117.955 29.0667 121.582 27.2C125.262 25.28 129.395 24.32 133.982 24.32C138.515 24.32 142.462 25.28 145.822 27.2C149.235 29.0667 151.715 31.76 153.262 35.28L143.582 40.48C141.342 36.5333 138.115 34.56 133.902 34.56C130.649 34.56 127.955 35.6267 125.822 37.76C123.689 39.8933 122.622 42.8 122.622 46.48C122.622 50.16 123.689 53.0667 125.822 55.2C127.955 57.3333 130.649 58.4 133.902 58.4C138.169 58.4 141.395 56.4267 143.582 52.48L153.262 57.76C151.715 61.1733 149.235 63.84 145.822 65.76C142.462 67.68 138.515 68.64 133.982 68.64ZM203.808 24.96V68H191.968V62.88C190.314 64.7467 188.341 66.1867 186.048 67.2C183.754 68.16 181.274 68.64 178.608 68.64C172.954 68.64 168.474 67.0133 165.168 63.76C161.861 60.5067 160.208 55.68 160.208 49.28V24.96H172.688V47.44C172.688 54.3733 175.594 57.84 181.408 57.84C184.394 57.84 186.794 56.88 188.608 54.96C190.421 52.9867 191.328 50.08 191.328 46.24V24.96H203.808ZM229.849 68.64C226.276 68.64 222.783 68.2133 219.369 67.36C215.956 66.4533 213.236 65.3333 211.209 64L215.369 55.04C217.289 56.2667 219.609 57.28 222.329 58.08C225.049 58.8267 227.716 59.2 230.329 59.2C235.609 59.2 238.249 57.8933 238.249 55.28C238.249 54.0533 237.529 53.1733 236.089 52.64C234.649 52.1067 232.436 51.6533 229.449 51.28C225.929 50.7467 223.023 50.1333 220.729 49.44C218.436 48.7467 216.436 47.52 214.729 45.76C213.076 44 212.249 41.4933 212.249 38.24C212.249 35.52 213.023 33.12 214.569 31.04C216.169 28.9067 218.463 27.2533 221.449 26.08C224.489 24.9067 228.063 24.32 232.169 24.32C235.209 24.32 238.223 24.6667 241.209 25.36C244.249 26 246.756 26.9067 248.729 28.08L244.569 36.96C240.783 34.8267 236.649 33.76 232.169 33.76C229.503 33.76 227.503 34.1333 226.169 34.88C224.836 35.6267 224.169 36.5867 224.169 37.76C224.169 39.0933 224.889 40.0267 226.329 40.56C227.769 41.0933 230.063 41.6 233.209 42.08C236.729 42.6667 239.609 43.3067 241.849 44C244.089 44.64 246.036 45.84 247.689 47.6C249.343 49.36 250.169 51.8133 250.169 54.96C250.169 57.6267 249.369 60 247.769 62.08C246.169 64.16 243.823 65.7867 240.729 66.96C237.689 68.08 234.063 68.64 229.849 68.64Z" fill="white"/>
<path d="M309.709 68L309.629 34.4L293.149 62.08H287.309L270.909 35.12V68H258.749V12H269.469L290.429 46.8L311.069 12H321.709L321.869 68H309.709ZM361.956 68.96C356.249 68.96 351.076 67.7333 346.436 65.28C341.849 62.7733 338.222 59.3333 335.556 54.96C332.942 50.5333 331.636 45.5467 331.636 40C331.636 34.4533 332.942 29.4933 335.556 25.12C338.222 20.6933 341.849 17.2533 346.436 14.8C351.076 12.2933 356.276 11.04 362.036 11.04C366.889 11.04 371.262 11.8933 375.156 13.6C379.102 15.3067 382.409 17.76 385.076 20.96L376.756 28.64C372.969 24.2667 368.276 22.08 362.676 22.08C359.209 22.08 356.116 22.8533 353.396 24.4C350.676 25.8933 348.542 28 346.996 30.72C345.502 33.44 344.756 36.5333 344.756 40C344.756 43.4667 345.502 46.56 346.996 49.28C348.542 52 350.676 54.1333 353.396 55.68C356.116 57.1733 359.209 57.92 362.676 57.92C368.276 57.92 372.969 55.7067 376.756 51.28L385.076 58.96C382.409 62.2133 379.102 64.6933 375.156 66.4C371.209 68.1067 366.809 68.96 361.956 68.96Z" fill="#FF5959"/>
</g>
<defs>
<filter id="filter0_d_26_112" x="0.640015" y="0.0399933" width="395.436" height="79.92" filterUnits="userSpaceOnUse" color-interpolation-filters="sRGB">
<feFlood flood-opacity="0" result="BackgroundImageFix"/>
<feColorMatrix in="SourceAlpha" type="matrix" values="0 0 0 0 0 0 0 0 0 0 0 0 0 0 0 0 0 0 127 0" result="hardAlpha"/>
<feOffset/>
<feGaussianBlur stdDeviation="5.5"/>
<feComposite in2="hardAlpha" operator="out"/>
<feColorMatrix type="matrix" values="0 0 0 0 0 0 0 0 0 0 0 0 0 0 0 0 0 0 0.25 0"/>
<feBlend mode="normal" in2="BackgroundImageFix" result="effect1_dropShadow_26_112"/>
<feBlend mode="normal" in="SourceGraphic" in2="effect1_dropShadow_26_112" result="shape"/>
</filter>
</defs>
</svg>
